<svg width="96" height="96" viewBox="0 0 96 96" fill="none" xmlns="http://www.w3.org/2000/svg">
    <defs>
        <linearGradient id="shield" x1="10%" y1="0%" x2="90%" y2="100%">
            <stop offset="0%" stop-color="#67e8f9" />
            <stop offset="45%" stop-color="#34d399" />
            <stop offset="100%" stop-color="#c084fc" />
        </linearGradient>
        <linearGradient id="lock" x1="0%" y1="0%" x2="100%" y2="100%">
            <stop offset="0%" stop-color="#0f172a" stop-opacity="0.9" />
            <stop offset="100%" stop-color="#0f172a" stop-opacity="0.7" />
        </linearGradient>
    </defs>
    <rect x="8" y="8" width="80" height="80" rx="24" fill="url(#shield)" opacity="0.5" />
    <path d="M48 78c-9.1-3.2-20-10.5-20-24.8V26l20-8 20 8v27.2C68 67.5 57.1 74.8 48 78Z" fill="url(#shield)"
        stroke="#e0f2fe" stroke-width="2" />
    <path
        d="M48 38c3.314 0 6 2.686 6 6v4h2.5a1.5 1.5 0 0 1 1.5 1.5v9a1.5 1.5 0 0 1-1.5 1.5h-17a1.5 1.5 0 0 1-1.5-1.5v-9a1.5 1.5 0 0 1 1.5-1.5H42v-4c0-3.314 2.686-6 6-6Z"
        fill="#f8fbff" stroke="url(#lock)" stroke-width="1.5" />
    <path d="M48 42a2 2 0 0 0-2 2v4h4v-4a2 2 0 0 0-2-2Z" fill="#0f172a" opacity="0.5" />
</svg>